<svg xmlns="http://www.w3.org/2000/svg" width="16" height="16" viewBox="0 0 16 16">
  <path fill="#3a8ed0" d="M1 5.5a.5.5 0 0 0 .5.5h4a.5.5 0 0 0 0-1h-4a.5.5 0 0 0-.5.5m0-3a.5.5 0 0 0 .5.5h6a.5.5 0 0 0 0-1h-6a.5.5 0 0 0-.5.5"/>
  <path fill="#3a8ed0" d="M8 3.25C9 4.784 9.784 4 10.75 4h1.5c.966 0 1.75.784 1.75 1.75V7H9z"/>
  <path fill="#848484" d="M9 8v3h5V8z"/>
  <path fill="#48c78e" d="M9 13.25c0 .966.784 1.75 1.75 1.75h1.5A1.75 1.75 0 0 0 14 13.25V12H9z"/>
  <path fill="#000" d="M3 8.5a.5.5 0 0 0-1 0V10a2 2 0 0 0 2 2h1.293l-.647.646a.5.5 0 0 0 .708.708l1.5-1.5a.5.5 0 0 0 0-.708l-1.5-1.5a.5.5 0 1 0-.708.708l.647.646H4a1 1 0 0 1-1-1z"/>
</svg>
